<?xml version="1.0" encoding="UTF-8"?><svg id="a" xmlns="http://www.w3.org/2000/svg" xmlns:xlink="http://www.w3.org/1999/xlink" viewBox="0 0 512 512"><defs><style>.e{fill:#fff;filter:url(#c);}.f{fill:url(#b);}</style><radialGradient id="b" cx="258.33" cy="49.09" fx="258.33" fy="49.09" r="256.01" gradientTransform="translate(-.33 1.28) rotate(-.09)" gradientUnits="userSpaceOnUse"><stop offset="0" stop-color="#90278e"/><stop offset="1" stop-color="#652d90"/></radialGradient><filter id="c" filterUnits="userSpaceOnUse"><feOffset dx="0" dy="2.71"/><feGaussianBlur result="d" stdDeviation="10.82"/><feFlood flood-color="#000" flood-opacity=".5"/><feComposite in2="d" operator="in"/><feComposite in="SourceGraphic"/></filter></defs><g><circle class="f" cx="256" cy="256" r="256"/><path class="e" d="M113.47,140.75c.94,3.29,2.05,6.87,3.34,10.75,1.26,3.88,2.94,7.1,5.03,9.65,2,2.28,4.32,4.08,6.96,5.4,2.53,1.27,5.13,1.82,7.79,1.63l.46-.03c1.85-.19,3.69-.74,5.53-1.64,1.86-.91,3.49-2.05,4.88-3.44,2.87-3.6,4.8-6.62,5.8-9.09,.14-.36,.25-.64,.38-.97,.19,2.51,.98,5.04,2.43,7.62,.89,1.52,1.91,2.89,3.08,4.1,1.17,1.23,2.56,2.19,4.16,2.88,1.63,.69,3.64,1.08,6.05,1.16,.48,.02,.97,.02,1.45-.01,1.73-.13,3.16-.6,4.28-1.41,1.88-1.29,3.27-2.84,4.16-4.66,.91-1.81,1.7-3.87,2.38-6.16,.27-1.04,.61-2.33,1.03-3.89,.05-.17,.1-.37,.15-.55,.19,.32,.32,.66,.53,.97,1.63,2.4,3.71,4.2,6.26,5.4,2.58,1.17,5.36,1.47,8.37,.9s5.31-2.02,6.93-4.37c1.12-1.65,2.25-3.66,3.38-6.03l1.66-3.58,.19,1.86c.16,1.25,.24,2.11,.27,2.59,.14,.99,.28,1.81,.42,2.46,.11,.63,.29,1.44,.53,2.42,.48,2.4,.96,4,1.44,4.81,.48,.84,1.41,2.26,2.79,4.27,.41,.41,1.23,1.15,2.47,2.22s2.49,1.7,3.76,1.88c.96,.28,1.92,.37,2.89,.28,.94-.06,1.88-.28,2.79-.67,1.84-.8,3.44-1.83,4.79-3.09,1.67-1.48,3.29-3.62,4.85-6.42,1.51-2.69,2.91-5.6,4.21-8.69,2.49,2.75,5.62,4.08,9.44,3.87,3.89-.19,7.09-1.77,9.59-4.76,1.52-1.8,2.79-3.8,3.81-5.97,1.02-2.16,2.04-4.48,3.06-6.97,.24,3.15,.77,6.73,1.57,10.74,.81,4.03,2.25,7.53,4.32,10.49,1.12,1.62,2.47,2.97,4.04,4.04,1.57,1.08,3.42,1.75,5.56,2,.54,.05,1.06,.05,1.58,.02,1.5-.09,2.92-.55,4.28-1.37,1.79-1.11,3.44-2.63,4.93-4.55,3.55-4.55,6.39-10.41,8.5-17.56,2.14-7.12,3.7-12.76,4.67-16.9,.38-1.76,.53-3.16,.47-4.2-.1-1.22-.52-1.92-1.24-2.11-1.35-.35-2.47,.92-3.37,3.81-.51,1.69-1.26,4.07-2.24,7.14-.96,3.07-2.06,6.29-3.28,9.66-1.81,5.01-3.75,9.55-5.83,13.6-2.05,4.06-3.87,5.74-5.47,5.05-.63-.32-1.05-3.18-1.25-8.58-.18-5.42-.27-11.43-.26-18.02,.02-3.58,.04-7.09,.09-10.54,.04-3.47,.09-6.59,.16-9.35,.09-2.28-.18-4.61-.81-6.99-.66-2.36-2.13-3.79-4.44-4.29-.47-.1-.93-.14-1.39-.11-.61,.01-1.22,.15-1.81,.42-1.02,.44-1.9,1.08-2.64,1.92-1.23,1.48-2.08,3.09-2.54,4.83-.46,1.72-.7,3.46-.75,5.26-2.14-2.37-4.32-3.92-6.56-4.65-2.22-.73-4.42-.87-6.61-.4-3.27,.71-6.36,2.51-9.24,5.39-2.86,2.91-5.23,6.11-7.11,9.59-1.03,1.93-1.87,3.84-2.52,5.75s-1.09,3.69-1.32,5.36c-.31,2.01-.4,4.02-.28,6.03,.08,1.25,.23,2.49,.46,3.73,.21,1.08,.63,2.04,1.01,3.03-.3,.76-.53,1.48-.85,2.24-1.45,3.48-2.91,6.57-4.41,9.27-1.5,2.67-2.86,4.14-4.09,4.42-2.38-.06-3.73-2.16-4.06-6.3-.31-4.17-.52-7.15-.63-8.96s-.21-3.66-.3-5.49c-.11-1.81-.17-3.63-.18-5.47-.18-4.23-.34-8.43-.47-12.61-.1-4.18-.24-8.39-.42-12.61-.26-4.32-.49-8.64-.68-12.94-.22-4.33-.74-8.62-1.56-12.89-.26-1.31-.63-2.57-1.11-3.76-.46-1.2-1.48-1.91-3.08-2.15-.62-.11-1.26-.15-1.92-.11-.33,.02-.66,.07-.98,.14-1.01,.19-1.91,.51-2.7,.97-.81,.51-1.41,1.97-1.8,4.4-.36,2.45-.6,4.98-.73,7.59-.1,1.77-.15,3.41-.16,4.91-.04,1.51-.06,2.65-.06,3.41-.06,1.92-.11,3.81-.15,5.68-.04,1.87-.04,3.76,0,5.67-.02,.9-.04,1.83-.06,2.8s0,1.91,.06,2.83c-.04,.51-.07,.99-.07,1.42l.09,1.41c.01,.18,0,.6-.04,1.26-.06,.67,0,1.08,.19,1.21-1.97-2.13-4.41-3.58-7.31-4.37-2.93-.79-5.74-.72-8.41,.21-1.9,.63-3.57,1.6-4.99,2.91-1.45,1.31-2.68,2.86-3.7,4.63-1.87,3.21-3.05,6.84-3.55,10.9-.3,2.55-.39,4.93-.25,7.14,.06,.94,.2,1.81,.33,2.68-1,3.57-1.93,6.68-2.76,8.96-.74,1.73-1.31,3.35-1.73,4.86-.42,1.5-1.31,2.61-2.67,3.3-2.07-.02-3.16-1.76-3.27-5.2-.11-3.46-.2-5.74-.26-6.84-.09-2.65-.14-4.86-.18-6.61-.03-1.74-.09-3.94-.18-6.62-.11-4.28-.33-7.32-.67-9.11l-.51-2.69-.57-1.84c-.41-1.25-.94-2.16-1.59-2.74-1.24-1.1-2.67-1.77-4.3-2.03-.69-.11-1.37-.15-2.04-.1-.89,.05-1.74,.25-2.56,.58-1.31,.77-2.17,1.86-2.6,3.26-.42,1.41-.66,2.28-.72,2.61-.33,6.25-.42,10.34-.28,12.27,.11,1.23,.16,2.93,.18,4.84l-1.87,3.8c-1.47,3.03-2.37,4.92-2.68,5.68-1.76,2.51-3.7,5.12-5.8,7.82-2.11,2.71-4.48,3.54-7.12,2.5-.65-.24-1.29-.61-1.91-1.11-.62-.52-1.27-1.19-1.96-1.99-1.73-2.47-2.98-5.71-3.74-9.73s-1.31-7.49-1.67-10.43c-.15-.83-.26-1.62-.33-2.35l-.07-1.15,1.92-3.11c1.3-2.07,2.7-4.37,4.17-6.92,.97-1.67,1.88-3.29,2.72-4.87,.85-1.59,1.47-2.87,1.87-3.87,1.11-2.65,2.08-5.37,2.91-8.18,.85-2.81,1.51-5.65,1.97-8.54,.39-2.81,.5-6.01,.33-9.6-.14-3.59-1.3-6.43-3.47-8.52-1.85-1.85-4.02-2.7-6.52-2.55-.66,.04-1.36,.15-2.09,.32-3.37,.87-6.19,2.25-8.48,4.15-3.62,2.98-6.3,7.88-8.02,14.7-1.7,6.82-2.56,13.95-2.56,21.41-.02,2.15,.03,4.26,.16,6.34,.11,1.84,.29,3.64,.52,5.41,.44,3.86,1.12,7.35,2.02,10.48Zm136.63-13.72c.88-3.96,2.49-7.57,4.81-10.83,.99-1.36,2.4-2.74,4.23-4.12,1.22-.92,2.4-1.41,3.54-1.48,.59-.04,1.16,.04,1.74,.24,.65,.27,1.3,.85,1.95,1.76l1,1.35c.03,1.35-.1,3.85-.38,7.49-.29,3.67-.59,6.28-.9,7.83-1.35,2.15-2.54,4.17-3.57,6.08s-2.71,4.74-5.03,8.5c-.64,.81-1.58,1.71-2.82,2.7-.66,.52-1.31,.8-1.94,.81-.56,.03-1.1-.12-1.64-.47l-.12-.11c-.05-.02-.1-.06-.16-.11-1.13-.88-1.79-1.96-2-3.25-.09-.66-.16-1.35-.2-2.09-.04-.68-.06-1.4-.06-2.14,.13-4.15,.65-8.2,1.56-12.16Zm-57.69,11.49c-.13-3.41-.01-6.88,.36-10.4,.13-1.59,.54-3.27,1.22-5.05,.62-1.6,1.8-2.44,3.56-2.52,.23-.01,.47-.01,.73,0,1,.09,2,.38,3,.85,.98,.5,1.85,1.1,2.64,1.79,1.16,1,2.05,1.94,2.66,2.83l.92,1.28,.28,5.23c.19,3.46,.2,5.16,.04,5.09,.01,.18-.06,.44-.22,.78-.18,.34-.31,.59-.37,.75-.21,.68-.46,1.33-.72,1.96-.3,.63-.59,1.29-.88,1.97-.58,1.36-1.19,2.87-1.83,4.51-.64,1.62-1.52,2.93-2.63,3.91-.79,.79-1.72,1.22-2.8,1.28-1.09,.04-2.05-.32-2.86-1.09-.35-.42-.64-.86-.85-1.33-.23-.5-.44-1.02-.63-1.57-.88-3.09-1.41-6.16-1.6-9.21-.02-.35-.03-.71-.03-1.07Zm-67.42-16.67c-.15-3.75-.24-6.53-.24-8.37-.14-2.31-.22-4.62-.23-6.92-.04-2.29,.07-4.55,.32-6.76,.21-2.33,.69-4.87,1.45-7.59,.75-2.73,1.57-5.09,2.44-7.08,.5-.95,1.47-1.71,2.92-2.29,.47-.18,.92-.29,1.36-.31,.86-.03,1.63,.27,2.28,.9,.19,.27,.4,.57,.63,.92,.2,.35,.4,.7,.6,1.07,.47,.99,.74,2.15,.82,3.47,.05,.81,.04,1.67-.04,2.57-.23,2.44-.42,4.54-.57,6.31-.15,2.23-.58,4.3-1.3,6.21-.75,1.93-1.43,3.93-2.05,5.98-.32,1.1-.81,2.4-1.48,3.92-.65,1.52-1.34,3.06-2.09,4.61-1.11,2.31-2.16,4.39-3.14,6.24l-1.44,2.73-.23-5.61Zm29.78-12.77c-.04-.18-.06-.35-.07-.53-.11-1.76,.48-3.21,1.77-4.36,.53-.42,1.14-.76,1.81-1.03,.65-.27,1.33-.42,2.04-.47l.3-.02,.46-.03c1.25,.08,2.44,.44,3.55,1.08,1.08,.63,1.87,1.51,2.34,2.66,.32,.62,.5,1.29,.55,2.03v.19c.03,.79-.17,1.5-.58,2.14-.79,1.33-2.16,2.2-4.13,2.63-.66,.14-1.28,.23-1.86,.27-1.17,.07-2.22-.07-3.13-.42-1.78-.76-2.8-2.14-3.05-4.14Zm149.1-34.51c-.16-.53-.25-1.05-.28-1.55-.11-1.32,.24-2.54,1.04-3.66,.8-1.07,1.9-1.88,3.3-2.42,.47-.16,.93-.26,1.36-.31,.91-.06,1.77,.19,2.57,.72,1.06,.7,1.89,1.67,2.47,2.91,.56,1.24,.92,2.44,1.07,3.61,.04,.28,.07,.54,.08,.8,.12,2.04-.29,3.96-1.25,5.78-1.07,2.06-2.26,3.98-3.55,5.77-.21,.27-.42,.54-.6,.8s-.43,.44-.73,.54c0,.07-.02,.13-.07,.16h-.07c-.13,.04-.25,.07-.38,.1-.18,.01-.36,0-.54-.04-.28-.06-.51-.2-.67-.42,.56-.83,1.03-1.71,1.41-2.65,.35-.97,.66-1.95,.93-2.97,.05-.34,.08-.66,.09-.97,.04-.28-.03-.55-.2-.79-.29-.44-.66-.75-1.13-.93-.49-.17-.94-.34-1.33-.49-1.75-.73-2.92-2.07-3.5-4Zm11.75,27.39c.07,1.12,.24,2.24,.51,3.38,.78,3.17,1.92,6.12,3.42,8.86,1.67,3.04,3.48,5.72,5.43,8.05,1.95,2.31,3.91,4.93,5.88,7.87l.09,.11c.08,.05,.12,.11,.13,.19l-.33,.32-.28,.37c-2.61,3.2-5.12,6.62-7.53,10.26-2.38,3.64-3.44,7.65-3.17,12.03,.19,1.96,.67,3.84,1.42,5.66,.78,1.84,1.87,3.47,3.29,4.89,1.41,1.47,3.13,2.58,5.14,3.32,2.01,.77,4.01,1.36,6.01,1.78,1.63,.28,3.28,.37,4.96,.27,1.09-.07,2.19-.21,3.31-.43,2.82-.58,5.27-1.84,7.35-3.78,1.54-1.5,2.7-3.32,3.46-5.46,.76-2.17,1.2-4.31,1.29-6.44,.14-2.66-.09-5.31-.68-7.96-.62-2.64-1.55-5.13-2.79-7.48-.26-.55-1.47-2.44-3.64-5.67-2.14-3.22-3.33-4.74-3.57-4.57,3.5-3.22,7.61-6,12.32-8.33,4.7-2.33,8.24-3.81,10.6-4.44,.65-.29,.95-.82,.9-1.59-.01-.23-.05-.47-.12-.72-.36-1.18-1.36-1.55-3.02-1.12-2.32,.53-5.6,1.68-9.86,3.47-4.28,1.77-8.9,4.77-13.85,9-1.78-1.93-3.44-3.95-5-6.05-1.56-2.08-3.03-4.21-4.41-6.39-.18-.4-.42-.81-.73-1.22l-.46-.62,.96-1.24c.63-.86,1.13-1.52,1.49-2,.8-1.07,1.5-2.26,2.08-3.57,.59-1.29,1.16-2.54,1.72-3.75,1.18-2.5,1.32-4.96,.43-7.38-.86-2.45-2.46-4.19-4.8-5.22-2.05-.87-3.99-1.25-5.82-1.14s-3.43,.67-5.03,1.69c-3.29,2.09-5.45,5.09-6.46,9.01-.54,2-.75,4.02-.63,6.05Zm18.33,34.87l1.05-.98,3.64,4.99c2.45,3.32,3.81,5.22,4.06,5.68,.92,2.04,1.85,4.71,2.79,8.03,.29,.92,.45,1.81,.51,2.65,.13,2.11-.44,3.9-1.7,5.35-.42,.58-1,1.05-1.71,1.4-.7,.32-1.44,.51-2.23,.56-.23,.04-.44,.06-.65,.07-2.87,.18-5.56-.54-8.05-2.15-2.69-1.75-4.31-4.18-4.89-7.29-.11-.66-.2-1.33-.24-2.01-.08-1.35,0-2.72,.25-4.11,.38-2.04,1.03-3.96,1.94-5.75,.41-.82,.9-1.61,1.46-2.39,.54-.79,1.11-1.53,1.7-2.21,.66-.57,1.35-1.19,2.07-1.85Zm-9.79-42.36c.34-2.8,1.55-4.27,3.64-4.4,.43-.03,.92,0,1.46,.1,2.86,.51,4.37,2.14,4.51,4.89,0,.12,0,.25-.02,.38,.02,1.55-.79,3.48-2.44,5.78l-2.47,3.44-2.64-3.13c-1.3-1.55-2.01-3.25-2.15-5.08-.04-.66,0-1.32,.11-2Zm97.47,150.86c-1.74-1.27-3.4-1.19-5.01,.25-1.34,1.31-2.57,2.82-3.69,4.55-1.07,1.72-2.24,3.33-3.49,4.83-1.36,1.78-2.73,3.54-4.12,5.28-1.39,1.7-2.96,3.28-4.68,4.73-1.39,1.19-3.25,2.39-5.58,3.6-2.3,1.21-4.33,1.13-6.11-.22-1.78-1.35-3.04-3.29-3.79-5.81-.79-2.56-1.48-4.78-2.07-6.68-.63-2.49-1.19-5-1.71-7.53-.47-2.54-.79-5.14-.95-7.82-.6-6.04-.86-12.16-.76-18.36,.13-6.24,.37-12.41,.7-18.51-.02-.35,.02-1.01,.12-1.96l.15-1.43,.97,.35c.64,.2,1.14,.34,1.51,.44,2.23,.38,4.48,.38,6.75,0,2.27-.33,4.34-.99,6.21-1.98,1.31-.55,2.55-1.24,3.72-2.06,1.18-.78,2.27-1.7,3.27-2.74,.7-.76,1.3-1.62,1.79-2.6,.46-.93,.71-1.9,.77-2.89,.11-.84,.16-1.87,.17-3.09,0-1.23-.33-2.11-.99-2.66-1.14-1.16-2.47-1.33-4-.53-1.49,.76-2.2,1.87-2.11,3.33,.1,1.69-.22,3.17-.97,4.44-.76,1.23-1.9,2.27-3.43,3.11-1.64,.81-3.43,1.32-5.35,1.51-1.93,.2-3.75,0-5.49-.61-.16,0-.7-.16-1.63-.49l-1.39-.57c.15-2.06,.26-4.08,.34-6.06,.11-1.98,.17-4,.16-6.05,.13-1.86,.21-3.7,.26-5.52,.05-1.82-.34-3.61-1.16-5.38-.73-1.53-1.69-2.85-2.91-3.97s-2.57-1.99-4.07-2.65c-1.62-.61-3.35-.9-5.2-.87h-.23c-1.77,.08-3.25,.75-4.44,2-.55,.62-1.01,1.3-1.35,2.04s-.62,1.46-.81,2.18c-.28,1.12-.5,4.33-.66,9.63l-.17,7.88-4.73-2.73c-3.11-1.78-4.96-2.83-5.58-3.15-1.75-.88-3.77-1.7-6.07-2.47-2.26-.77-4.37-1.39-6.33-1.86-5.52-1.24-11.6-1.5-18.22-.78-6.59,.72-12.18,3.22-16.77,7.48-1.38,1.31-2.37,2.89-2.96,4.74-.53,1.61-.73,3.26-.59,4.95l.04,.7v.24c.23,1.57,1.14,2.32,2.76,2.26,1.61-.1,2.55-.86,2.82-2.3,.17-1,.44-1.88,.78-2.65,.31-.77,.68-1.46,1.12-2.08,2.15-2.93,5.16-4.69,9.03-5.29,3.87-.55,7.45-.81,10.72-.77,6.09,.22,11.91,1.52,17.46,3.9,5.59,2.38,10.86,5.26,15.8,8.63l-.03,1.54c-.02,1.03,0,1.95,.06,2.78-.52,9.5-.94,18.94-1.23,28.32-.16,5.04,.21,10.05,.93,15.03-1.47,1.91-3.14,4.1-5.16,6.77-5,6.62-10.01,13.26-15,19.92-4.05,5.42-7.57,10.13-10.56,14.14l-4.43,6.01-.9-4.98c-.56-3.32-1.02-6.05-1.39-8.2-.05-.75-.11-1.43-.19-2.06-.08-.63-.02-1.32,.17-2.08,.51-.03,1.25-.59,2.21-1.67s1.6-1.82,1.94-2.19c.92-1.16,1.81-2.36,2.68-3.6s1.69-2.49,2.43-3.76c1.77-2.63,3.42-5.34,4.95-8.12,1.49-2.78,2.82-5.58,3.98-8.41,2.32-5.98,3.56-12.16,3.72-18.52,.16-6.36-1.03-12.57-3.56-18.61-.69-1.53-1.57-2.98-2.64-4.34-1.03-1.36-2.25-2.53-3.65-3.51-3.17-2.09-6.39-3.04-9.65-2.84-2.48,.15-5,.98-7.55,2.47-5.91,3.4-10.29,7.62-13.14,12.64-1.96,3.4-3.46,6.96-4.5,10.69-1.04,3.73-1.75,7.49-2.15,11.26-.59,5.76-.84,11.48-.72,17.15,.04,3.19,.22,6.34,.35,9.51-.17,.46-.28,.87-.45,1.33-2.8,7.75-5.81,14.76-9.02,21.03-3.17,6.27-5.99,8.87-8.46,7.8-.98-.49-1.62-4.92-1.93-13.26-.28-8.39-.41-17.67-.4-27.85,.02-5.53,.06-10.96,.13-16.29,.06-5.37,.15-10.19,.24-14.46,.14-3.52-.28-7.12-1.25-10.81-1.01-3.65-3.3-5.85-6.86-6.63-.72-.15-1.43-.21-2.14-.16-.95,.02-1.88,.23-2.8,.64-1.58,.69-2.94,1.68-4.08,2.97-1.91,2.29-3.22,4.77-3.93,7.46-.7,2.65-1.09,5.36-1.16,8.12-3.3-3.67-6.69-6.07-10.15-7.19-3.43-1.14-6.83-1.34-10.22-.62-5.06,1.1-9.82,3.88-14.29,8.33-4.42,4.49-8.09,9.43-11,14.82-1.59,2.98-2.89,5.94-3.89,8.88-1.01,2.94-1.68,5.71-2.04,8.3-.48,3.11-.63,6.21-.44,9.32,.07,1.19,.27,2.38,.44,3.56-1.29,3.38-2.55,6.78-3.87,10.14-2.53,6.35-4.18,10.34-4.95,11.97-1.03,2.39-2.24,4.99-3.61,7.8-1.33,2.85-2.96,5.12-4.91,6.81-.37,.38-.73,.66-1.07,.84-.38,.18-.8,.36-1.27,.55-.38,.14-.72,.22-.99,.23-.28,.06-.59,.1-.94,.12-1.24-.2-2.03-.92-2.38-2.16-.35-1.24-.56-2.42-.63-3.52-.09-3.27,.19-6.54,.82-9.82,.63-3.28,1.08-6.5,1.36-9.67,.1-2.21,.27-4.37,.5-6.48,.22-2.11,.45-4.25,.67-6.44,.25-3.69,.55-7.39,.91-11.13,.36-3.77,.72-7.54,1.09-11.31-.25-2.08-.61-4.11-1.08-6.09-.47-1.98-1.54-3.6-3.19-4.83-1.65-1.2-3.58-1.71-5.78-1.54-2.24,.18-4.36,.63-6.37,1.34s-4.01,1.45-6.02,2.2c-2.05,.76-4.1,1.08-6.16,.97,1.29-2.76,2.4-5.57,3.33-8.43,.89-2.86,1.36-5.81,1.42-8.85,.21-3.05-.07-6.29-.83-9.72-.76-3.46-2.3-6.33-4.61-8.6-2.64-2.56-5.7-3.74-9.15-3.52h-.24c-3.53,.31-6.63,1.7-9.27,4.19-1.65,1.48-2.82,3.25-3.53,5.31-.74,2.1-1.09,4.33-1.07,6.7,0,.51,0,1.05,.04,1.6,.23,3.77,1.23,7.58,3.01,11.41,2.08,4.41,4.54,7.76,7.36,10.03,.85,.72,1.84,1.23,2.78,1.83l-.7,1.18c-.52,1.14-1.44,3.19-2.76,6.15-1.36,2.93-2.86,6.24-4.48,9.93-2.43,5.4-4.93,10.82-7.47,16.26-2.55,5.48-4.36,9.01-5.45,10.58-1.98,3.16-4.23,6.14-6.74,8.94-2.55,2.8-5.47,5.15-8.74,7.04-1.86,1.1-4.22,1.98-7.06,2.62-2.84,.65-5.17,.06-6.98-1.76-.63-.55-1.12-1.14-1.47-1.74-.31-.61-.61-1.27-.89-1.96-2.05-5.08-3.07-10.72-3.05-16.92,.01-6.2,.65-11.94,1.9-17.22,1.05-4.68,2.8-9.74,5.23-15.18,2.47-5.44,6.25-9.04,11.36-10.81,1.42-.57,3.05-.76,4.88-.6,1.79,.13,3.26,.71,4.43,1.74,1.25,1.03,2.22,2.47,2.93,4.32,.71,1.85,1.04,3.57,1.02,5.15,.1,1.69-.19,3.26-.89,4.73-.7,1.46-1.69,2.71-2.97,3.73-.68,.51-1.38,.99-2.1,1.43-.73,.4-1.49,.74-2.31,1.03-.27,.14-1.14,.3-2.63,.51-1.49,.21-2.3,.14-2.44-.2,.32,1.32,1.1,2.46,2.34,3.41,1.29,.99,2.54,1.5,3.76,1.55,4.98,.05,8.56-1.34,10.76-4.15,2.19-2.86,3.43-5.81,3.72-8.87,.22-2.18,.16-4.49-.19-6.92-.34-2.46-1.13-4.63-2.35-6.48-3.07-5.02-7.65-7.92-13.73-8.69-4.02-.55-7.64-.7-10.86-.46-1.69,.1-3.26,.3-4.7,.58-6.42,1.5-11.8,4.59-16.13,9.28-4.33,4.68-7.61,10.11-9.84,16.29-2.63,7.38-3.7,15.02-3.22,22.93,.12,1.97,.34,3.95,.66,5.94,1.56,10.01,5.64,17.45,12.26,22.34,4.13,2.43,8.78,4.12,13.93,5.06,2.36,.45,4.61,.61,6.78,.48,2.67-.16,5.24-.75,7.71-1.78,4-1.7,7.89-3.91,11.67-6.63,3.74-2.72,6.71-5.9,8.89-9.54,.93-1.52,2.23-3.91,3.88-7.16,1.65-3.26,3.43-6.88,5.31-10.86,2.87-5.94,5.71-11.91,8.5-17.93,2.75-6.04,4.68-10.31,5.79-12.78,.19-.33,.32-.67,.41-1.03,4.12,.97,8.16,.9,12.12-.21,.03-.08-.65,3.04-2.03,9.36-1.43,6.36-2.66,13.4-3.68,21.12-.71,5.22-1.17,10.3-1.38,15.24-.21,4.9,.09,8.95,.92,12.13,.47,1.9,1.13,3.72,1.99,5.45,.85,1.72,1.94,3.27,3.24,4.65,1.82,1.94,4.03,3.34,6.65,4.21,2.65,.82,5.3,1.23,7.95,1.23,2.44-.15,4.77-.69,7-1.61,2.19-.93,4.29-2.12,6.29-3.58,1.85-1.42,3.97-4.55,6.35-9.39,2.39-4.84,4.77-10.34,7.16-16.48,.79-2.03,1.49-4.06,2.24-6.09,.83,1.31,1.58,2.67,2.66,3.84,3.91,4.5,8.89,6.58,14.94,6.25,6.02-.29,10.96-2.74,14.82-7.36,2.35-2.79,4.32-5.87,5.89-9.24,1.57-3.33,3.15-6.92,4.72-10.77,.38,4.87,1.19,10.41,2.44,16.6,1.25,6.24,3.47,11.65,6.67,16.23,1.73,2.5,3.81,4.58,6.24,6.25,2.43,1.67,5.29,2.7,8.6,3.08,.83,.07,1.64,.08,2.43,.03,2.32-.14,4.52-.85,6.62-2.12,2.78-1.71,5.32-4.05,7.62-7.03,2.88-3.7,5.44-7.98,7.71-12.78,.26,1.66,.31,3.34,.63,4.99,1.1,5.62,2.6,11.15,4.51,16.6,2.99,8.93,7.79,17.66,14.38,26.17,6.63,8.47,15.2,13.24,25.68,14.3,1.03,.13,2.04,.17,3.02,.11,2.44-.15,4.63-.84,6.56-2.06,2.74-1.67,4.34-4.45,4.82-8.34,.4-3.18,.24-6.43-.48-9.74-.71-3.27-1.83-6.26-3.33-8.97-1.65-3.06-3.64-5.86-5.96-8.4-2.33-2.58-4.79-5-7.37-7.25-.25-.1-1.59-1.14-4.04-3.12-2.45-1.94-3.73-2.85-3.84-2.73l5.98-8.65c3.95-5.76,8.32-11.95,13.13-18.56,3.19-4.4,6.27-8.5,9.26-12.34,.29,1.12,.4,2.26,.73,3.38,1.05,3.57,2.53,7.09,4.44,10.56,1.91,3.48,4.45,6.32,7.63,8.53,2.92,2.03,6.43,3.24,10.52,3.62,1.79,.13,3.48,.14,5.09,.04,2.16-.13,4.19-.49,6.09-1.08,4.65-1.39,9.49-4.98,14.5-10.77,5.05-5.8,8.84-10.65,11.37-14.55,.22-.29,.4-.6,.54-.92,.18-.33,.38-.62,.6-.87,.35-.77,.52-1.49,.52-2.16-.06-1.06-.62-1.99-1.65-2.8Zm-269-28.12c-.13,4.94-1.1,9.42-2.91,13.44-.22,.37-.4,.83-.57,1.39l-.24,.84-1.45-1.45c-.93-.97-1.67-1.79-2.22-2.47-1.16-1.5-2.24-3.11-3.25-4.83-.97-1.72-1.69-3.47-2.15-5.26-.45-1.55-.72-3.11-.82-4.69-.05-.74-.06-1.48-.02-2.19,.14-2.34,.85-4.53,2.14-6.59,.91-1.24,2.08-2.12,3.51-2.64,.31-.09,.6-.15,.88-.17,1.1-.11,2.12,.44,3.06,1.65,2.41,3.21,3.74,6.86,3.99,10.95,.04,.67,.06,1.34,.06,2.01Zm96.96,21.18c-.44,5.67-.91,9.71-1.39,12.1-2.09,3.32-3.93,6.46-5.53,9.4-1.59,2.94-4.19,7.32-7.78,13.15-.99,1.25-2.44,2.63-4.36,4.17-1.02,.81-2.02,1.23-3.01,1.25-.86,.05-1.7-.19-2.53-.73-.08-.07-.15-.13-.18-.17-.08-.03-.16-.08-.25-.16-1.74-1.35-2.77-3.03-3.09-5.02-.14-1.02-.24-2.1-.31-3.24-.06-1.06-.1-2.17-.09-3.31,.2-6.41,1-12.67,2.4-18.79,1.36-6.12,3.85-11.7,7.44-16.74,1.53-2.11,3.71-4.23,6.54-6.38,1.89-1.42,3.72-2.18,5.48-2.29,.91-.06,1.8,.07,2.69,.37,1.01,.41,2.01,1.32,3.01,2.71l1.55,2.1c.05,2.09-.15,5.95-.59,11.58Zm70.16,16.67c-.18-5.51-.19-11.53-.04-18.05,.12-4.43,.36-8.67,.7-12.71,.39-4.01,.96-7.2,1.72-9.58,.38-1.44,1.01-3.4,1.89-5.86,.78-2.22,2.12-3.39,4.05-3.5,.16,0,.33,0,.53,.03,.72,.08,1.39,.35,2,.82,.62,.51,1.13,1.06,1.52,1.62,1.04,1.52,1.83,3.18,2.38,5,.55,1.86,.94,3.75,1.17,5.67,.1,.91,.17,1.79,.22,2.65,.4,6.57-.44,13.09-2.53,19.57-2.39,7.37-5.77,14.05-10.14,20.04-.44,.62-1.09,1.21-1.96,1.78l-1.25,.84-.27-8.33Zm18.53,50.31c2.96,2.5,5.5,5.27,7.61,8.29,1.31,1.97,2.38,4.08,3.23,6.32,.85,2.23,1.41,4.57,1.67,7,.05,.2,.08,.41,.1,.65,.14,2.32-.26,4.71-1.22,7.18-.44,1.21-1.11,1.83-2.02,1.84-1.06,.03-2.45-.8-4.17-2.47-2.82-2.87-5.34-5.97-7.56-9.3-2.26-3.37-4.1-6.95-5.51-10.73-.47-1.31-.91-2.67-1.31-4.06-.44-1.39-.82-2.73-1.14-4.01-.03-.51-.32-2.03-.87-4.56l-.88-3.86c.01,.24,.47,.52,1.35,.86,.85,.31,1.41,.45,1.68,.43,3.1,1.75,6.12,3.89,9.03,6.43Zm77.28,54.18c-.74,.23-1.31,.39-1.71,.48-.09,.1-.21,.17-.37,.21l-.38,.02c-5.76,1.89-10.08,3.3-12.97,4.23l-.11-1.12c-.05-.75-.14-1.47-.28-2.15-.72-4.1-1.55-8.37-2.48-12.8-.9-4.43-3.22-7.98-6.96-10.64-2.3-1.58-4.81-2.5-7.56-2.74-.85-.07-1.7-.09-2.55-.03-1.85,.11-3.64,.52-5.38,1.23-2.09,.79-3.98,1.96-5.67,3.5-1.7,1.51-3.12,3.19-4.26,5.02-1.29,2.03-2.45,4.81-3.49,8.36-1.01,3.54-1.9,7.26-2.67,11.13-1.15,5.81-2,11.16-2.55,16.02l-.82,7.31-.96-4.84c-.66-3.19-1.46-6.61-2.37-10.26-.62-2.47-1.25-4.77-1.88-6.9-.64-2.16-1.24-3.76-1.8-4.79-.99-1.76-2.29-3.31-3.91-4.66-1.62-1.35-3.53-1.72-5.72-1.11-1.74,.44-2.64,2.07-2.78,4.78-2.88,.99-5.54,1.84-7.71,2.36-2.97,.72-5.66,1.15-8.07,1.3l-.99-3.05c-.69-2-1.09-3.11-1.19-3.32-.94-2.48-2.13-5.2-3.56-8.16-1.43-2.93-3.32-5.2-5.65-6.81-2.36-1.65-5.02-2.52-7.97-2.62-.57,0-1.11,.02-1.65,.05-2.32,.14-4.43,.79-6.34,1.94-3.42,2-5.27,4.87-5.55,8.63-.27,3.75,.56,7.14,2.51,10.16,1.07,1.6,2.24,3.02,3.51,4.26,1.24,1.27,2.67,2.4,4.3,3.36,1.53,.88,3.33,1.52,5.39,1.93s4.02,.6,5.87,.58c.19-.01,1.22-.04,3.1-.1,1.88-.06,3.23-.17,4.03-.34,.39,3.37,.63,6.72,.71,10.08,.05,3.39-.31,6.77-1.08,10.15-.62,2.7-1.53,5.78-2.73,9.21-1.23,3.44-3.02,6.1-5.35,8-1.36,.46-2.59,.52-3.71,.18-1.12-.34-2.13-.99-3.04-1.94-1.47-1.48-2.71-3.55-3.72-6.22-.98-2.7-1.78-5.53-2.4-8.47-.97-4.49-1.6-8.71-1.9-12.65-.34-3.93-.53-6.14-.59-6.6-.97-3.52-2.34-6.15-4.11-7.9-1.81-1.78-4.32-2.05-7.54-.81-1.5,1.19-2.65,2.55-3.47,4.08-.81,1.49-1.35,3.38-1.58,5.65-.27,1.8-.38,4.07-.34,6.8,.04,2.7,.13,5.17,.27,7.42,.1,1.24,.47,2.5,.73,3.75-.22,1.41-.36,2.84-.71,4.21-.6,2.46-1.35,4.87-2.24,7.25-.45,.87-1.33,2.42-2.63,4.64-1.34,2.21-2.73,2.74-4.15,1.57-.4-.38-.69-.82-.88-1.31-.16-.52-.32-1.03-.47-1.52-.93-4.47-1.3-8.96-1.11-13.49,.22-4.57,.24-9.1,.06-13.61-.21-3.47-.81-7.27-1.78-11.38-.94-4.12-3.56-6.63-7.86-7.53-2.26-.52-4.52-.51-6.78,.04-2.26,.58-4.25,1.6-5.98,3.05-2.49,2.01-4.41,4.48-5.77,7.42-1.39,2.97-2.47,6.02-3.26,9.15-.78,3.12-1.47,6.28-2.06,9.45-.59,3.14-1.52,6.2-2.79,9.16-.58-3.33-1-6.7-1.28-10.14-.27-3.4-.51-6.8-.72-10.18-.05-.87-.05-1.8,.02-2.78l.1-1.47c2.87-3.44,5.02-6.02,6.45-7.74l5.48-6.6c3.66-4.4,6.35-8.38,8.07-11.94,2.04-4.17,3.07-9.26,3.12-15.26,.01-5.96-2.56-10.04-7.72-12.24-2.17-.96-4.29-1.39-6.39-1.26-1.66,.1-3.28,.51-4.87,1.24-3.63,1.7-6.81,3.79-9.55,6.29-2.86,2.59-5.2,5.53-7.05,8.81-1.87,3.32-3.32,6.78-4.35,10.39-1.1,4.12-1.8,8.29-2.11,12.51-.34,4.23-.54,8.41-.6,12.56,0,1.09,.06,2.2,.1,3.3-4.51,2.23-9.24,5.27-14.33,9.63-2.19-2.38-4.24-4.86-6.15-7.44-1.91-2.55-3.72-5.17-5.43-7.86-.22-.49-.52-.99-.89-1.5l-.56-.77,1.18-1.53c.79-1.05,1.39-1.87,1.83-2.47,.99-1.32,1.84-2.78,2.55-4.39,.72-1.58,1.42-3.11,2.12-4.6,1.45-3.07,1.62-6.1,.53-9.08-1.07-3.01-3.03-5.15-5.91-6.42-2.51-1.07-4.89-1.53-7.15-1.4-2.16,.13-4.22,.82-6.18,2.07-4.05,2.57-6.7,6.27-7.94,11.08-.67,2.46-.92,4.94-.77,7.44,.08,1.38,.3,2.76,.63,4.15,.96,3.9,2.36,7.53,4.2,10.9,2.05,3.73,4.28,7.04,6.68,9.91,2.4,2.84,4.81,6.06,7.23,9.68l.1,.13c.1,.06,.15,.14,.16,.23l-.4,.4-.35,.44c-3.22,3.94-6.3,8.14-9.26,12.62-2.93,4.48-4.23,9.41-3.9,14.79,.24,2.4,.83,4.72,1.75,6.96,.96,2.27,2.3,4.27,4.04,6.02,1.74,1.81,3.85,3.17,6.32,4.09,2.48,.95,4.94,1.68,7.39,2.19,2,.35,4.03,.46,6.1,.33,1.34-.08,2.7-.26,4.06-.53,3.47-.72,6.49-2.26,9.04-4.65,1.89-1.84,3.31-4.08,4.25-6.71,.93-2.66,1.46-5.3,1.59-7.92,.17-3.28-.1-6.54-.84-9.79-.76-3.25-1.91-6.32-3.43-9.21-.32-.67-1.82-3-4.48-6.98-2.63-3.95-4.09-5.82-4.39-5.62,3.22-2.96,7-5.52,11.05-7.87,.1,1.01,.16,2.02,.29,3.03,.61,4.27,1.55,8.38,2.83,12.36,.95,2.64,2.14,5.2,3.58,7.69,1.47,2.48,3.46,4.42,5.96,5.81,1.21,.8,2.51,1.37,3.92,1.69,1.43,.35,2.86,.33,4.28-.08,2.38-.61,3.98-1.89,4.81-3.82,.82-1.96,1.45-3.96,1.89-6,.83-3.82,1.7-7.67,2.59-11.55,.89-3.92,1.75-7.83,2.58-11.74,.43-2.13,1.15-4.43,2.17-6.92,1.04-2.45,2.47-3.68,4.3-3.7,1.1,.03,1.65,1.28,1.64,3.76,0,2.48-.16,5.3-.47,8.46-.19,2.08-.38,4.15-.56,6.2-.16,2.05-.2,3.81-.11,5.29,.24,3.94,.9,8.06,1.98,12.35,1.08,4.33,3.2,7.89,6.35,10.68,2.55,2.13,5.38,3.23,8.49,3.3,.41,0,.8-.02,1.17-.07,2.69-.16,5.21-1.08,7.56-2.72,2.31-1.72,4.05-3.84,5.21-6.39,.98-2.15,1.7-4.35,2.34-6.57,2.29,4.33,5.16,7.81,8.68,10.37,3.38,2.43,7.42,3.75,12.11,3.97,.66,.02,1.32,.01,1.98-.03,3.85-.21,7.25-1.57,10.2-4.11,2.63-2.23,4.46-5.03,5.51-8.39,1.05-3.39,2.02-6.75,2.92-10.07,1.49-5.87,1.98-11.14,1.48-15.82l-.76-6.97,4.52-.79c3.02-.53,6.19-1.49,9.52-2.89,.2-.08,.37-.2,.57-.28,.6,4.17,1,7.14,1.18,8.74,1.38,11.37,3.05,22.23,5,32.56,1.92,10.34,3.69,18.85,5.33,25.53,.88,3.62,1.67,6.57,2.38,8.85,.7,2.28,1.26,3.69,1.67,4.23,.83,1.2,1.88,2.26,3.16,3.15,1.25,.89,2.6,1.44,4.06,1.63,.47,.07,.95,.08,1.41,.05,.6-.04,1.17-.15,1.72-.34,1.05-.28,1.83-.88,2.34-1.79,.44-.59,.7-1.27,.82-2.03s.14-1.52,.1-2.27c-.07-3.2-.41-7.59-1.04-13.17-.59-5.55-1.17-11.22-1.75-16.99-.29-3.12-.54-6.13-.79-9.04-.24-2.9-.4-5.56-.49-7.97-.32-6.83-.03-13,.89-18.52,.92-5.52,1.7-10.07,2.37-13.66,.34-2.16,.74-4.3,1.21-6.43,.44-2.1,1.13-4.15,2.07-6.16,.83-1.87,1.98-4.1,3.45-6.71,1.44-2.6,3.43-3.84,5.94-3.71,1.51,.1,2.66,1.81,3.42,5.16,.74,3.35,1.25,6.89,1.55,10.64,.24,2.97,.37,5.63,.39,7.98l.03,3.53-.83,.28c-.56,.16-1.16,.35-1.8,.58-2.66,1.14-5.11,3-7.33,5.58-2.23,2.62-3.48,5.47-3.76,8.57-.28,3.09,.11,6.08,1.16,8.97,1.09,2.89,2.98,5.13,5.68,6.72,4.72,2.69,9.75,2.85,15.1,.49,5.38-2.4,8.49-6.22,9.33-11.45,.34-2.16,.5-4.5,.47-7.05-.03-2.51-.06-4.83-.1-6.96l-.08-1.27-.07-1.22c-.01-.18-.06-.54-.16-1.07-.06-.5-.05-.84,.03-1.04,0-.06,2.3-.88,6.91-2.45l6.96-2.4c.4-.21,.78-.42,1.14-.63,.36-.21,.74-.44,1.13-.68,.09-.1,.21-.2,.36-.31,.18-.14,.35-.31,.53-.51,.6-.47,.88-1.01,.84-1.61-.02-.31-.13-.63-.34-.97-.6-1-1.42-1.33-2.47-.98Zm-103.81,4.28c-1.03,.13-1.62,.19-1.78,.2-.28,.05-.54,.08-.8,.09-.47,.03-.94,.01-1.41-.05-.79-.08-1.53-.18-2.23-.29-1.98-.48-3.88-1.33-5.72-2.57-1.81-1.27-3.2-2.83-4.2-4.68-.61-1.19-1.06-2.42-1.36-3.69-.08-.34-.13-.66-.15-.98-.06-.94,.1-1.89,.48-2.86,.47-1.06,1.17-1.91,2.11-2.53,.84-.55,1.77-.86,2.77-.92l.38-.02c2.29,.04,4.24,.84,5.84,2.37,1.6,1.54,2.85,3.25,3.75,5.14,.73,1.62,1.55,3.78,2.47,6.49l1.38,4.11-1.54,.19Zm-136.13-4.44l-3.25-3.85c-1.6-1.91-2.48-3.99-2.64-6.24-.05-.81,0-1.63,.13-2.46,.42-3.45,1.91-5.25,4.47-5.4,.53-.03,1.13,0,1.8,.12,3.52,.63,5.38,2.64,5.55,6.02,0,.16,0,.32-.02,.47,.02,1.92-.98,4.28-3,7.11l-3.04,4.23Zm19,71.17c-.52,.72-1.23,1.3-2.11,1.73-.85,.4-1.76,.63-2.74,.69-.28,.05-.54,.08-.79,.1-3.54,.22-6.84-.67-9.91-2.65-3.3-2.15-5.3-5.14-6.01-8.96-.14-.81-.24-1.63-.29-2.48-.1-1.66,0-3.35,.3-5.06,.47-2.51,1.27-4.86,2.39-7.07,.51-1,1.1-1.98,1.8-2.93,.66-.99,1.36-1.89,2.09-2.72,.81-.71,1.65-1.47,2.54-2.28l1.3-1.21,4.47,6.13c3.01,4.08,4.68,6.42,4.99,7,1.13,2.51,2.27,5.79,3.43,9.86,.35,1.14,.56,2.23,.62,3.26,.16,2.59-.54,4.79-2.09,6.58Zm29.66-71.74l-.06-.94c-.11-1.84-.2-3.75-.26-5.73-.12-3.48,.22-6.92,1.02-10.33,.76-3.43,2.01-6.65,3.74-9.65,.97-1.6,2.24-3.4,3.81-5.41,1.28-1.62,2.77-2.48,4.46-2.58,.4-.02,.83,0,1.27,.06,1.59,.28,2.79,1.16,3.6,2.65,.85,1.45,1.4,2.85,1.67,4.18,.09,.56,.16,1.12,.2,1.69,.08,1.25,0,2.53-.24,3.83-.32,1.87-.86,3.6-1.61,5.18-1.11,2.39-2.46,4.67-4.06,6.84-1.6,2.17-3.19,4.31-4.79,6.41-.73,.93-1.41,1.8-2.05,2.62-.64,.83-1.27,1.65-1.88,2.47-.38,.4-.75,.83-1.1,1.29-.35,.49-.7,.94-1.05,1.33-.12,.2-.48,.61-1.1,1.25-.59,.6-.88,1-.87,1.18-.35-2.09-.59-4.21-.72-6.36Zm159.83,25.45c.37,6.07-.37,9.55-2.23,10.45l-1.03,.15-.37,.02c-.54,.03-1.08-.09-1.63-.37-.49-.35-1.66-1.74-3.5-4.17-.62-.77-.96-1.71-1.02-2.81-.17-2.25,.82-5.14,2.96-8.66,1.4-1.81,2.78-3.11,4.14-3.88,1.4-.74,2.05-1.11,1.95-1.11l.69,9.7,.04,.66Z"/></g><g/></svg>